<?xml version="1.0" standalone="no"?><!DOCTYPE svg PUBLIC "-//W3C//DTD SVG 1.1//EN" "http://www.w3.org/Graphics/SVG/1.1/DTD/svg11.dtd"><svg t="1734343879133" class="icon" viewBox="0 0 1068 1024" version="1.1" xmlns="http://www.w3.org/2000/svg" p-id="12278" xmlns:xlink="http://www.w3.org/1999/xlink" width="208.59375" height="200"><path d="M553.2394 778.224h-0.05c-7.99 0-16.092-0.08-24.08-0.231-139.472-2.679-270.492-28.227-368.938-71.938C55.6134 659.625-1.2666 597.068 0.0224 529.92c1.252-65.252 57.605-124.407 158.69-166.561 94.734-39.506 220.97-61.264 355.443-61.264 7.972 0 16.073 0.077 24.073 0.226 139.475 2.673 270.495 28.221 368.947 71.943 104.553 46.43 161.437 108.98 160.144 176.124-1.248 65.262-57.613 124.412-158.693 166.567-94.715 39.508-220.944 61.269-355.386 61.269m-39.085-431.16c-128.673 0-248.76 20.528-338.137 57.802C93.6154 439.232 45.8614 485.124 44.9814 530.786c-0.904 47.198 47.734 96.106 133.445 134.166 93.081 41.336 217.934 65.515 351.543 68.075 7.702 0.152 15.512 0.224 23.224 0.224h0.046c128.648 0 248.713-20.528 338.087-57.796 82.392-34.364 130.153-80.26 131.03-125.926 0.906-47.205-47.732-96.111-133.44-134.162-93.09-41.346-217.94-65.518-351.546-68.08a1224.355 1224.355 0 0 0-23.214-0.223" p-id="12279" fill="#1296db"></path><path d="M756.9434 1005.515c-59.176 0-131.026-32.34-207.793-93.514-75.843-60.441-149.83-143.674-213.94-240.688-76.91-116.372-130.195-238.778-150.027-344.65-21.076-112.447-1.83-194.769 54.203-231.8C259.5284 81.556 283.4234 74.8 310.3924 74.8c59.177 0 131.035 32.332 207.792 93.514 75.848 60.446 149.832 143.676 213.941 240.694 76.904 116.374 130.182 238.765 150.027 344.642 21.07 112.456 1.82 194.771-54.209 231.803-20.144 13.311-44.028 20.062-71 20.062M310.3934 119.77c-18.002 0-33.549 4.246-46.209 12.614-39.39 26.032-52.073 93.829-34.802 186 18.758 100.116 69.668 216.65 143.35 328.13 61.543 93.136 132.243 172.772 204.446 230.318 67.73 53.982 131.58 83.713 179.766 83.713 18 0 33.55-4.247 46.205-12.606 39.388-26.034 52.08-93.831 34.798-186.008-18.754-100.11-69.662-216.642-143.339-328.127-61.548-93.135-132.243-172.777-204.45-230.319-67.738-53.98-131.576-83.715-179.766-83.715" p-id="12280" fill="#1296db"></path><path d="M336.2474 1022.571c-21.815 0-41.914-4.884-59.874-14.774-58.847-32.38-84.69-112.869-72.783-226.66 11.211-107.126 54.414-233.438 121.658-355.652C398.6414 292.103 493.0914 178.773 584.3814 114.555c10.16-7.147 24.19-4.707 31.334 5.448 7.145 10.163 4.707 24.185-5.456 31.332-85.885 60.418-175.404 168.245-245.604 295.836-64.417 117.082-105.735 237.347-116.342 338.652-9.757 93.266 8.37 159.819 49.734 182.574 41.363 22.758 107.278 2.454 180.845-55.713 79.893-63.172 159.371-162.448 223.786-279.529 70.2-127.587 113.367-260.914 118.428-365.804 0.605-12.404 11.138-21.978 23.546-21.378 12.402 0.6 21.976 11.14 21.38 23.544-5.38 111.497-50.557 251.94-123.949 385.319-67.24 122.217-150.808 226.318-235.3 293.128-62.346 49.294-120.885 74.607-170.536 74.607" p-id="12281" fill="#1296db"></path><path d="M655.3074 113.592c0 29.6 12.182 59.013 33.111 79.95 20.93 20.929 50.348 33.11 79.952 33.11 29.602 0 59.014-12.181 79.945-33.11 20.934-20.937 33.112-50.352 33.112-79.95 0-29.602-12.178-59.021-33.112-79.95C827.3854 12.717 797.9724 0.528 768.3714 0.528c-29.604 0-59.023 12.189-79.952 33.112-20.93 20.93-33.11 50.349-33.11 79.95" p-id="12282" fill="#1296db"></path></svg>