<?xml version="1.0" standalone="no"?><!DOCTYPE svg PUBLIC "-//W3C//DTD SVG 1.1//EN" "http://www.w3.org/Graphics/SVG/1.1/DTD/svg11.dtd"><svg t="1734071414666" class="icon" viewBox="0 0 1024 1024" version="1.1" xmlns="http://www.w3.org/2000/svg" p-id="5435" xmlns:xlink="http://www.w3.org/1999/xlink" width="200" height="200"><path d="M797.75744 343.61344h-33.42336v-92.96896c0-135.2704-113.70496-245.15584-253.30688-245.15584-140.11392 0-253.81888 109.78304-253.81888 245.15584v92.96896h-33.4336c-86.26176 0-156.73344 69.74464-156.73344 156.3136V864.1536c0 85.94432 69.94944 155.6992 156.73344 155.6992h573.98272c86.26176 0 156.7232-69.75488 156.7232-155.6992V499.21024c0.11264-85.95456-69.8368-155.5968-156.7232-155.5968zM341.8112 250.64448c0-88.5248 75.93984-160.64512 169.3184-160.64512 93.07136 0 168.79616 72.01792 168.79616 160.64512v86.46656H341.8112v-86.46656zM870.0928 864.0512c0 39.20896-32.39936 71.18848-72.22272 71.18848H223.87712c-39.8336 0-72.22272-31.87712-72.22272-71.18848V499.82464c0-39.51616 32.39936-71.71072 72.22272-71.71072h573.98272c39.82336 0 72.22272 31.87712 72.22272 71.18848v364.7488zM510.81216 554.92608c-23.21408 0-42.30144 18.98496-42.30144 42.30144v169.0112c0 23.21408 18.98496 42.30144 42.30144 42.30144 23.21408 0 42.30144-18.98496 42.30144-42.30144V597.12512c0.01024-23.21408-19.08736-42.19904-42.30144-42.19904z m0 0" fill="#555657" p-id="5436"></path></svg>