<?xml version="1.0" standalone="no"?><!DOCTYPE svg PUBLIC "-//W3C//DTD SVG 1.1//EN" "http://www.w3.org/Graphics/SVG/1.1/DTD/svg11.dtd"><svg t="1734071454535" class="icon" viewBox="0 0 1024 1024" version="1.1" xmlns="http://www.w3.org/2000/svg" p-id="6487" width="200" height="200" xmlns:xlink="http://www.w3.org/1999/xlink"><path d="M511.41632 1.3824l22.59968 13.63968 21.76 12.87168 20.9408 12.05248c3.38944 1.96608 6.76864 3.88096 10.10688 5.74464l19.6096 10.92608 18.7904 10.11712 17.89952 9.33888 17.08032 8.58112 16.20992 7.7824c18.41152 8.63232 35.08224 15.65696 50.04288 21.0944 12.288 4.49536 26.30656 8.8576 42.10688 13.12768l16.34304 4.23936 8.63232 2.0992 18.13504 4.13696c6.22592 1.3824 12.63616 2.73408 19.27168 4.08576l20.4288 3.98336 21.59616 3.90144 22.77376 3.86048 23.92064 3.77856 25.09824 3.72736 26.24512 3.65568V617.1648l-15.62624 24.94464-15.52384 24.17664-7.7312 11.76576-15.42144 22.97856C770.6624 915.5072 635.58656 1022.75072 511.41632 1022.75072c-124.17024 0-259.2768-107.24352-405.2992-321.73056l-15.42144-22.95808-7.74144-11.76576-15.52384-24.17664a2255.01184 2255.01184 0 0 1-15.62624-24.94464V164.11648l13.12768-1.8432 25.40544-3.69664 12.25728-1.88416 23.69536-3.79904 22.528-3.86048 21.37088-3.93216 10.27072-1.9968 19.6608-4.03456 18.51392-4.08576 8.83712-2.08896 16.77312-4.18816c18.8928-4.92544 35.49184-9.96352 49.7152-15.16544 10.5984-3.82976 22.1184-8.52992 34.57024-14.04928l15.42144-6.97344 16.34304-7.76192 17.18272-8.58112 18.1248-9.33888 19.02592-10.11712 19.9168-10.92608 20.85888-11.69408 21.69856-12.51328 22.65088-13.27104 11.66336-6.93248z m-0.3584 89.0368l-19.3536 11.13088-22.90688 12.84096c-11.20256 6.20544-22.03648 12.05248-32.53248 17.62304l-20.45952 10.61888c-36.6592 18.688-68.4544 32.96256-95.65184 42.86464-22.95808 8.37632-50.4832 16.24064-82.72896 23.74656l-22.19008 4.90496c-3.80928 0.78848-7.65952 1.60768-11.6224 2.39616l-24.27904 4.75136c-8.56064 1.59744-17.13152 3.14368-25.71264 4.61824l-25.23136 4.23936v365.08672l3.44064 5.43744c145.64352 229.69344 273.84832 341.73952 374.4768 345.3952l5.10976 0.08192c79.4112 0 176.4352-68.68992 285.98272-210.688l14.04928-18.54464c7.04512-9.45152 14.14144-19.23072 21.28896-29.2864l14.37696-20.5312 7.22944-10.56768 14.55104-21.72928c2.44736-3.69664 4.90496-7.40352 7.35232-11.18208l14.73536-22.95808 3.45088-5.48864v-364.8512c-79.616-12.61568-141.69088-26.56256-187.16672-42.31168l-7.04512-2.49856a748.862464 748.862464 0 0 1-71.03488-30.76096l-20.224-10.10688a1591.00928 1591.00928 0 0 1-43.48928-23.13216l-23.23456-13.02528-24.30976-13.98784-6.87104-4.08576z m0 0" fill="#555657" p-id="6488"></path><path d="M705.14688 344.51456a35.269632 35.269632 0 0 1 25.09824-11.19232c9.53344-0.19456 18.7392 3.4816 25.52832 10.17856 13.35296 13.09696 14.58176 34.22208 3.39968 48.77312l-2.39616 2.80576-268.4928 284.54912c-12.73856 13.6192-33.87392 14.99136-48.26112 3.11296l-2.75456-2.54976L266.6496 507.4944c-14.03904-14.29504-14.12096-37.18144-0.18432-51.57888 12.83072-13.2608 33.69984-14.39744 47.90272-2.63168l2.73408 2.49856 144.77312 146.54464 243.27168-257.81248z m0 0" fill="#555657" p-id="6489"></path></svg>