<?xml version="1.0" standalone="no"?><!DOCTYPE svg PUBLIC "-//W3C//DTD SVG 1.1//EN" "http://www.w3.org/Graphics/SVG/1.1/DTD/svg11.dtd"><svg t="1734072519360" class="icon" viewBox="0 0 1024 1024" version="1.1" xmlns="http://www.w3.org/2000/svg" p-id="16096" xmlns:xlink="http://www.w3.org/1999/xlink" width="200" height="200"><path d="M707.797333 304.426667c0-114.218667-93.354667-206.805333-208.512-206.805334-115.157333 0-208.512 92.586667-208.512 206.805334 0 114.218667 93.354667 206.805333 208.512 206.805333 115.2 0 208.512-92.586667 208.512-206.805333m292.053334 656c1.365333 4.437333 2.304 9.088 2.304 13.994666 0 26.88-21.930667 48.725333-49.024 48.725334a48.853333 48.853333 0 0 1-48.981334-48.725334v-0.170666h-1.28c-12.757333-203.904-182.741333-365.482667-391.168-365.482667-208.469333 0-378.453333 161.578667-391.253333 365.482667h-1.109333v0.170666c0 26.88-21.930667 48.725333-48.981334 48.725334A48.853333 48.853333 0 0 1 21.333333 974.421333c0-4.608 0.853333-8.96 2.048-13.226666 14.250667-185.045333 131.882667-341.248 296.149334-410.88C243.2 494.976 193.28 405.589333 193.28 304.426667 193.28 136.32 330.453333 0 499.626667 0c169.216 0 306.346667 136.32 306.346666 304.426667a302.933333 302.933333 0 0 1-118.186666 239.914666c172.202667 66.005333 297.088 225.536 312.064 416.085334" fill="#555657" p-id="16097"></path></svg>