<?xml version="1.0" standalone="no"?><!DOCTYPE svg PUBLIC "-//W3C//DTD SVG 1.1//EN" "http://www.w3.org/Graphics/SVG/1.1/DTD/svg11.dtd"><svg t="1515475571127" class="icon" style="" viewBox="0 0 1271 1024" version="1.1" xmlns="http://www.w3.org/2000/svg" p-id="3686" xmlns:xlink="http://www.w3.org/1999/xlink" width="930.908203125" height="750"><defs><style type="text/css"></style></defs><path d="M984.297544 143.584561c0.628772-15.764211 12.710175-30.181053 28.384561-32.875789 19.577263-4.087018 39.832702 12.755088 40.286316 32.606316 2.649825 27.665965 0.58386 55.466667 1.212632 83.222456-23.444211 0-46.88393 0-70.377544 0.044912 0.588351-27.665965-0.943158-55.33193 0.494035-82.997895zM475.486316 365.271579c7.814737-7.500351 21.782456-2.110877 24.117895 7.904561 4.13193 11.587368-9.880702 24.387368-20.974036 18.189474-10.150175-4.401404-12.081404-19.536842-3.143859-26.094035z" fill="#e6e6e6" p-id="3687"></path><path d="M480.561404 567.73614c34.986667-31.618246 80.797193-51.554807 128.224561-52.457544 48.819649-2.519579 98.272561 14.102456 135.859649 45.271579 6.916491 4.670877 8.313263 13.199719 10.558877 20.614737-23.044491-8.492912-39.702456-27.935439-62.652631-36.648421-66.694737-30.630175-149.46807-15.898947-203.093334 33.684211-2.56 0-7.68 0.044912-10.24 0.089824 0.354807-2.649825 0.983579-7.904561 1.342878-10.554386z" fill="#e6e6e6" p-id="3688"></path><path d="M983.534035 795.037193c52.457544 7.729404 105.409123 16.572632 154.992281 36.02414 15.629474 7.010807 33.86386 14.551579 41.233965 31.258948 5.384982 12.261053-6.152982 23.534035-15.409404 29.956491-24.61193 15.719298-53.265965 23.534035-81.246316 30.854737-67.368421 16.388491-136.492912 24.522105-205.428772 30.589754-130.829474 10.913684-262.422456 12.171228-393.521403 5.384983-81.111579-4.53614-162.312982-11.856842-242.256842-26.992281-37.726316-7.68-75.991579-15.813614-110.708772-32.965614-11.767018-6.426947-25.375439-14.77614-28.115088-28.968421-0.718596-13.563509 11.452632-22.860351 21.962105-29.013334 27.890526-15.539649 59.014737-24.571509 90.498246-29.372631 0.673684 24.656842-2.200702 49.62807 2.065965 74.060351 5.030175 24.342456 29.956491 39.653053 53.984561 38.220351 218.632982 1.841404 437.351298 0.359298 655.988772 0.943158 25.644912 1.527018 51.514386-16.388491 55.601404-42.397193 3.637895-29.062737-0.808421-58.390456 0.359298-87.583439z" fill="#e6e6e6" p-id="3689"></path><path d="M1052.474386 85.962105c-13.204211-14.910877-34.312982-16.437895-52.902175-16.258245-206.690807 0.718596-413.377123-0.718596-620.018527 0.98807-21.512982 0.898246-45.630877-4.087018-64.673684 8.533333-15.539649 9.835789-23.62386 28.294737-22.995088 46.304562-0.017965 41.804351-0.013474 83.613193-0.008982 125.417543h13.49614c-0.022456-40.218947 0.008982-80.437895-0.058386-120.656842-0.179649-12.620351 2.245614-26.498246 12.216141-35.25614 8.982456-9.25193 22.45614-11.048421 34.762105-10.913684 206.731228 0.269474 413.462456 0.044912 620.193684 0.089824 17.830175 0.359298 35.880421-1.616842 53.535439 1.706667 11.362807 2.515088 18.324211 12.665263 26.359017 20.210526-14.097965-4.985263-28.694456-12.8-44.058947-8.66807-23.04 4.491228-39.567719 27.216842-38.220351 50.436491-0.089825 229.142456 0 458.24-0.044912 687.382456-0.179649 15.849544-1.217123 35.296561-17.201404 43.695158-20.030877 14.322526-51.065263-1.392281-52.232982-25.779649-3.14386-36.239719 0.673684-72.757895-2.070456-109.087438-198.103579-0.229053-396.211649-0.094316-594.31972-0.049404 0.628772-18.997895 1.347368-37.950877 1.212632-56.948772-0.094316-128.902737-0.031439-257.832421-0.053895-386.762105h-13.514105c0.03593 148.093754 0.112281 296.183018-0.175158 444.249825-25.105965-0.224561-50.256842-0.404211-75.362807 0.179649-1.077895 22.321404-0.853333 44.638316-0.808421 67.009122 0.673684 24.656842-2.200702 49.62807 2.065965 74.060351 5.030175 24.342456 29.956491 39.653053 53.984561 38.220351 218.632982 1.841404 437.351298 0.359298 655.988772 0.943158 25.644912 1.527018 51.514386-16.388491 55.601404-42.397193 3.637895-29.058246-0.808421-58.385965 0.359298-87.578947 0.18414-184.894877 0.049404-369.803228 0.049403-554.707088 27.890526-0.089825 55.781053 0.449123 83.671579-0.718596 1.032982-33.414737 0.179649-66.874386 0.943158-100.334036 0.224561-18.683509-0.763509-39.882105-15.719298-53.310877z m-113.178947 823.511579c-17.381053 2.380351-34.986667 0.848842-52.412632 1.122807-197.658947 0.044912-395.317895-0.179649-592.93193 0.134737-17.515789-0.359298-37.771228 2.78007-51.963509-10.105263-11.22807-9.296842-13.338947-24.701754-13.069473-38.4 0.134737-34.762105 0.224561-69.524211 0.179649-104.290807 218.902456-0.044912 437.849825-0.044912 656.797193 0 0.538947 31.797895-1.212632 63.685614 0.718596 95.438596 0.808421 20.704561 16.617544 39.392561 36.872983 43.69965 15.36 4.311579 30.315789-2.919298 44.552982-7.635088-8.533333 7.86414-16.527719 18.243368-28.743859 20.035368z m114.885614-682.93614c-23.444211 0-46.88393 0-70.377544 0.044912 0.588351-27.665965-0.943158-55.33193 0.494035-82.997895 0.628772-15.764211 12.710175-30.181053 28.384561-32.875789 19.577263-4.087018 39.832702 12.755088 40.286316 32.606316 2.649825 27.665965 0.58386 55.466667 1.212632 83.222456z" fill="#e6e6e6" p-id="3690"></path><path d="M343.574456 273.511298h0.013474l0.008982-0.004491 0.004492 0.008982 48.20435 9.476492 41.445053-24.225685 0.004491-0.008982 0.008983 0.004491 0.017965-0.008982 0.008982 0.013473 48.19986 9.476492 41.449544-24.230176v-0.008982l0.013473 0.004491 0.008983-0.008982 0.004491 0.008982 27.42793 5.259228-24.989193-11.506526-44.750597 16.82414-0.103298 0.224562-0.247017-0.094316-0.251509 0.094316-0.103299-0.224562-45.222175-17.003789-45.217684 17.003789-0.10779 0.224562-0.247017-0.094316-0.251509 0.094316-0.103298-0.224562L343.578947 237.581474l-51.788351 18.557754v-11.645754l51.774878-18.809263 0.004491-0.013474 0.008982 0.004491 0.013474-0.004491 0.004491 0.013474 45.559018 17.125052 45.559017-17.125052v-0.013474l0.013474 0.004491 0.013474-0.004491 0.004491 0.013474 45.559018 17.125052 45.554526-17.125052 0.004491-0.013474 0.013474 0.004491 0.013473-0.004491 0.008983 0.013474 70.278737 32.363789 4.670877 2.151298 2.061474 0.947649-4.904421 8.501895-5.771229-1.113824-66.910315-12.826948-41.171088 24.064-0.053895 0.238035-0.264982-0.053894-0.229053 0.134736-0.14821-0.206596-47.840562-9.404632-41.14414 24.046035-0.058386 0.238035-0.264983-0.049403-0.224561 0.130246-0.143719-0.202106-47.849544-9.409122-43.308912 23.156771-10.734035-8.039298 51.680561-26.826105zM778.603789 392.48393l-15.148912-15.117474 15.126456-15.153403a7.230877 7.230877 0 0 0 2.115369-5.133474c0-1.940211-0.763509-3.759158-2.133334-5.124491-2.735158-2.739649-7.509333-2.74414-10.257964 0l-15.121965 15.153403-15.153404-15.121965c-2.748632-2.735158-7.500351-2.74414-10.262456 0.013474a7.271298 7.271298 0 0 0 0.013474 10.257965l15.148912 15.126456-15.117474 15.148912c-1.369825 1.369825-2.124351 3.188772-2.124351 5.128983 0.004491 1.940211 0.759018 3.763649 2.137825 5.133473 1.369825 1.369825 3.188772 2.124351 5.124491 2.124351s3.754667-0.750035 5.137965-2.128842l15.121965-15.157894 15.148912 15.121964c2.735158 2.739649 7.531789 2.730667 10.257965-0.008982a7.266807 7.266807 0 0 0-0.013474-10.262456zM510.558316 392.48393l-15.153404-15.117474 15.126456-15.153403c1.365333-1.374316 2.11986-3.193263 2.115369-5.133474 0-1.940211-0.759018-3.759158-2.133333-5.124491-2.739649-2.739649-7.509333-2.74414-10.257965 0l-15.126457 15.153403-15.153403-15.121965c-2.74414-2.735158-7.49586-2.74414-10.262456 0.013474a7.275789 7.275789 0 0 0 0.013473 10.257965l15.148913 15.126456-15.117474 15.148912c-1.369825 1.369825-2.124351 3.188772-2.124351 5.128983 0 1.940211 0.759018 3.763649 2.133334 5.133473 1.369825 1.369825 3.188772 2.124351 5.128982 2.124351 1.931228 0 3.754667-0.750035 5.133474-2.128842l15.121965-15.157894 15.153403 15.121964c2.735158 2.739649 7.531789 2.730667 10.257965-0.008982a7.266807 7.266807 0 0 0-0.004491-10.262456zM214.047439 401.201404l-8.254878-8.236913 8.241404-8.254877a3.916351 3.916351 0 0 0 1.149754-2.798035 3.920842 3.920842 0 0 0-1.158737-2.793544 4.042105 4.042105 0 0 0-5.591578 0l-8.241404 8.254877-8.254877-8.241403a4.042105 4.042105 0 0 0-5.591579 0.004491 3.970246 3.970246 0 0 0 0.004491 5.591579l8.254877 8.241403-8.236912 8.254878a3.907368 3.907368 0 0 0-1.154246 2.793544c0 1.055439 0.413193 2.052491 1.163228 2.798035a3.934316 3.934316 0 0 0 5.591579 0l8.241404-8.259369 8.254877 8.241404a4.042105 4.042105 0 0 0 5.591579-0.004492 3.970246 3.970246 0 0 0-0.008982-5.591578zM1145.869474 706.627368l-18.018807-17.969403 17.987368-18.018807c1.621333-1.630316 2.52407-3.80407 2.519579-6.099088 0-2.312982-0.907228-4.477754-2.533053-6.094596-3.260632-3.260632-8.933053-3.265123-12.198175 0l-17.987368 18.023298-18.018807-17.987368c-3.265123-3.25614-8.915088-3.265123-12.202667 0.017964a8.650105 8.650105 0 0 0 0.013474 12.198176l18.018807 17.982877-17.978386 18.009825c-1.630316 1.625825-2.52407 3.799579-2.524071 6.099087s0.902737 4.473263 2.533053 6.099088c1.625825 1.625825 3.790596 2.528561 6.094597 2.528561 2.299509 0 4.464281-0.898246 6.099087-2.528561l17.987369-18.023298 18.014315 17.982877c3.251649 3.260632 8.955509 3.247158 12.198176-0.013474a8.650105 8.650105 0 0 0-0.004491-12.207158z" fill="#e6e6e6" p-id="3691"></path></svg>